<?xml version="1.0" encoding="UTF-8" standalone="no"?>
<!-- Created with Inkscape (http://www.inkscape.org/) -->

<svg
   width="512"
   height="512"
   viewBox="0 0 135.46667 135.46666"
   version="1.1"
   id="svg5"
   inkscape:version="1.1.2 (0a00cf5339, 2022-02-04)"
   sodipodi:docname="icon.svg"
   inkscape:export-filename="/home/yolisses/pomodoro.png"
   inkscape:export-xdpi="1234.7985"
   inkscape:export-ydpi="1234.7985"
   xmlns:inkscape="http://www.inkscape.org/namespaces/inkscape"
   xmlns:sodipodi="http://sodipodi.sourceforge.net/DTD/sodipodi-0.dtd"
   xmlns:xlink="http://www.w3.org/1999/xlink"
   xmlns="http://www.w3.org/2000/svg"
   xmlns:svg="http://www.w3.org/2000/svg">
  <sodipodi:namedview
     id="namedview7"
     pagecolor="#ffffff"
     bordercolor="#666666"
     borderopacity="1.0"
     inkscape:pageshadow="2"
     inkscape:pageopacity="0.0"
     inkscape:pagecheckerboard="0"
     inkscape:document-units="mm"
     showgrid="false"
     fit-margin-top="0"
     fit-margin-left="0"
     fit-margin-right="0"
     fit-margin-bottom="0"
     inkscape:zoom="0.21734799"
     inkscape:cx="-315.1628"
     inkscape:cy="579.71551"
     inkscape:window-width="1366"
     inkscape:window-height="731"
     inkscape:window-x="0"
     inkscape:window-y="0"
     inkscape:window-maximized="1"
     inkscape:current-layer="g4165"
     units="px"
     width="512px" />
  <defs
     id="defs2">
    <linearGradient
       inkscape:collect="always"
       id="linearGradient7913">
      <stop
         style="stop-color:#005400;stop-opacity:0.99607843"
         offset="0"
         id="stop7909" />
      <stop
         style="stop-color:#00b100;stop-opacity:1"
         offset="0.65044922"
         id="stop1130" />
      <stop
         style="stop-color:#00a000;stop-opacity:1"
         offset="1"
         id="stop7911" />
    </linearGradient>
    <linearGradient
       inkscape:collect="always"
       id="linearGradient7713">
      <stop
         style="stop-color:#ff0000;stop-opacity:0.73017913"
         offset="0"
         id="stop7709" />
      <stop
         style="stop-color:#630000;stop-opacity:0"
         offset="1"
         id="stop7711" />
    </linearGradient>
    <linearGradient
       inkscape:collect="always"
       id="linearGradient6919">
      <stop
         style="stop-color:#ff0000;stop-opacity:1;"
         offset="0"
         id="stop6915" />
      <stop
         style="stop-color:#6e0000;stop-opacity:1"
         offset="1"
         id="stop6917" />
    </linearGradient>
    <linearGradient
       inkscape:collect="always"
       xlink:href="#linearGradient6919"
       id="linearGradient6921"
       x1="54.480797"
       y1="111.91367"
       x2="64.364159"
       y2="122.59587"
       gradientUnits="userSpaceOnUse" />
    <radialGradient
       inkscape:collect="always"
       xlink:href="#linearGradient7713"
       id="radialGradient7688"
       cx="59.585495"
       cy="114.81692"
       fx="59.585495"
       fy="114.81692"
       r="5.4034367"
       gradientTransform="matrix(0.8084461,0.00834738,-0.01338561,1.2963977,12.977425,-33.997131)"
       gradientUnits="userSpaceOnUse" />
    <clipPath
       clipPathUnits="userSpaceOnUse"
       id="clipPath13002">
      <path
         style="fill:#000080;fill-opacity:1;stroke:none;stroke-width:0.264583px;stroke-linecap:butt;stroke-linejoin:miter;stroke-opacity:1"
         d="m 54.951752,114.3536 c -0.458367,0.91673 -0.571654,1.93694 -0.384001,2.92351 0.626282,3.29263 2.661396,4.98742 5.313564,4.3349 0.58783,-0.14463 1.11148,0.18705 1.77278,0.0217 2.310452,-0.5776 4.03919,-4.2927 3.114021,-6.60561 -0.846918,-2.42199 -3.22802,-2.55529 -5.348287,-2.32696 -1.656731,-0.1226 -3.586454,-0.11081 -4.468077,1.65243 z"
         id="path13004"
         sodipodi:nodetypes="ssssccs" />
    </clipPath>
    <radialGradient
       inkscape:collect="always"
       xlink:href="#linearGradient7913"
       id="radialGradient15489"
       cx="58.88866"
       cy="108.77136"
       fx="58.864494"
       fy="108.55842"
       r="3.11955"
       gradientTransform="matrix(-0.9536239,0.0062428,-0.00594814,-0.90861425,116.98161,210.54637)"
       gradientUnits="userSpaceOnUse" />
  </defs>
  <g
     inkscape:label="Layer 1"
     inkscape:groupmode="layer"
     id="layer1"
     transform="translate(-54.481285,-111.03305)">
    <g
       id="g3291"
       transform="matrix(12.82472,0,0,12.82472,-644.08528,-1314.9113)">
      <g
         id="g4718"
         transform="translate(0,-0.33375921)">
        <g
           id="g4165"
           transform="translate(0,0.07217)">
          <path
             style="fill:url(#linearGradient6921);fill-opacity:1;stroke:none;stroke-width:0.264583px;stroke-linecap:butt;stroke-linejoin:miter;stroke-opacity:1"
             d="m 54.951751,114.35357 c -0.458367,0.91673 -0.571653,1.93694 -0.384,2.92351 0.626282,3.29263 2.661398,4.98742 5.313564,4.3349 0.587831,-0.14463 1.111482,0.18705 1.772779,0.0217 2.310455,-0.57761 4.039193,-4.2927 3.114022,-6.60562 -0.846917,-2.42199 -3.228019,-2.55529 -5.348288,-2.32696 -1.656731,-0.12259 -3.586454,-0.11081 -4.468077,1.65244 z"
             id="path991"
             sodipodi:nodetypes="ssssccs" />
          <path
             style="fill:url(#radialGradient7688);fill-opacity:1;stroke:none;stroke-width:0.264583px;stroke-linecap:butt;stroke-linejoin:miter;stroke-opacity:1"
             d="m 54.951751,114.35357 c -0.458367,0.91673 -0.571653,1.93694 -0.384,2.92351 0.626282,3.29263 2.661398,4.98742 5.313564,4.3349 0.587831,-0.14463 1.111482,0.18705 1.772779,0.0217 2.310455,-0.57761 4.039193,-4.2927 3.114022,-6.60562 -0.846917,-2.42199 -3.228019,-2.55529 -5.348288,-2.32696 -1.656731,-0.12259 -3.586454,-0.11081 -4.468077,1.65244 z"
             id="path991-9"
             sodipodi:nodetypes="ssssccs" />
          <path
             style="fill:url(#radialGradient15489);fill-opacity:1;stroke:none;stroke-width:0.385373px;stroke-linecap:butt;stroke-linejoin:miter;stroke-opacity:1"
             d="m 59.74045,112.99434 c 0.529719,0.48848 1.939604,0.51335 2.202976,1.56934 0.215247,-0.89669 -1.034259,-1.60134 -1.178792,-1.73916 1.021051,-0.56227 1.49507,0.49325 2.688788,-0.2194 -1.958413,-0.0684 -1.872094,-1.07578 -3.395001,-0.25294 -0.27882,-0.67539 -1.455398,-0.39775 -2.128973,-0.64183 0.311314,0.49899 0.763277,0.56042 0.78736,0.5788 -1.49886,-0.45554 -2.189631,0.23526 -2.756584,0.58641 1.357141,-0.13574 2.14272,-0.2703 2.891221,-0.0738 0.02653,0.15742 -0.902944,0.99221 -0.87817,1.78569 0.693363,-0.79521 1.814807,-1.31288 1.767175,-1.59311 z"
             id="path1851"
             sodipodi:nodetypes="ccccccccccc" />
          <path
             style="fill:none;fill-opacity:1;stroke:#ffffff;stroke-width:0.3;stroke-miterlimit:4;stroke-dasharray:0.9, 0.3;stroke-dashoffset:0.3;stroke-opacity:1"
             id="path9102"
             sodipodi:type="arc"
             sodipodi:cx="59.749546"
             sodipodi:cy="116.57566"
             sodipodi:rx="5.418221"
             sodipodi:ry="2.3986223"
             sodipodi:start="0"
             sodipodi:end="3.1415927"
             sodipodi:open="true"
             sodipodi:arc-type="arc"
             clip-path="url(#clipPath13002)"
             d="m 65.167767,116.57566 a 5.418221,2.3986223 0 0 1 -2.709111,2.07727 5.418221,2.3986223 0 0 1 -5.418221,0 5.418221,2.3986223 0 0 1 -2.70911,-2.07727" />
          <text
             xml:space="preserve"
             style="font-style:normal;font-variant:normal;font-weight:normal;font-stretch:normal;font-size:4.62912px;line-height:1.25;font-family:Ubuntu;-inkscape-font-specification:'Ubuntu, Normal';font-variant-ligatures:normal;font-variant-caps:normal;font-variant-numeric:normal;font-variant-east-asian:normal;fill:#ffffff;fill-opacity:1;stroke:#ffffff;stroke-width:0.148213;stroke-miterlimit:4;stroke-dasharray:none;stroke-opacity:1"
             x="58.22649"
             y="117.7626"
             id="text12814"><tspan
               sodipodi:role="line"
               id="tspan12812"
               style="font-style:normal;font-variant:normal;font-weight:normal;font-stretch:normal;font-size:4.62912px;font-family:Ubuntu;-inkscape-font-specification:'Ubuntu, Normal';font-variant-ligatures:normal;font-variant-caps:normal;font-variant-numeric:normal;font-variant-east-asian:normal;fill:#ffffff;stroke:#ffffff;stroke-width:0.148213;stroke-miterlimit:4;stroke-dasharray:none;stroke-opacity:1"
               x="58.22649"
               y="117.7626">P</tspan></text>
        </g>
      </g>
    </g>
  </g>
</svg>
