<?xml version="1.0" encoding="UTF-8" standalone="no"?>
<!-- Created with Inkscape (http://www.inkscape.org/) -->

<svg
   width="10.540997mm"
   height="10.717052mm"
   viewBox="0 0 10.540997 10.717052"
   version="1.1"
   id="svg5"
   inkscape:version="1.1.2 (0a00cf5339, 2022-02-04)"
   sodipodi:docname="pomodoro.svg"
   inkscape:export-filename="/home/yolisses/pomodoro.png"
   inkscape:export-xdpi="1234.7985"
   inkscape:export-ydpi="1234.7985"
   xmlns:inkscape="http://www.inkscape.org/namespaces/inkscape"
   xmlns:sodipodi="http://sodipodi.sourceforge.net/DTD/sodipodi-0.dtd"
   xmlns:xlink="http://www.w3.org/1999/xlink"
   xmlns="http://www.w3.org/2000/svg"
   xmlns:svg="http://www.w3.org/2000/svg">
  <sodipodi:namedview
     id="namedview7"
     pagecolor="#ffffff"
     bordercolor="#666666"
     borderopacity="1.0"
     inkscape:pageshadow="2"
     inkscape:pageopacity="0.0"
     inkscape:pagecheckerboard="0"
     inkscape:document-units="mm"
     showgrid="false"
     fit-margin-top="0"
     fit-margin-left="0"
     fit-margin-right="0"
     fit-margin-bottom="0"
     inkscape:zoom="6.9145241"
     inkscape:cx="5.4233667"
     inkscape:cy="33.552562"
     inkscape:window-width="1366"
     inkscape:window-height="731"
     inkscape:window-x="0"
     inkscape:window-y="0"
     inkscape:window-maximized="1"
     inkscape:current-layer="layer1" />
  <defs
     id="defs2">
    <linearGradient
       inkscape:collect="always"
       id="linearGradient7913">
      <stop
         style="stop-color:#009d00;stop-opacity:1"
         offset="0"
         id="stop7909" />
      <stop
         style="stop-color:#007d00;stop-opacity:1"
         offset="1"
         id="stop7911" />
    </linearGradient>
    <linearGradient
       inkscape:collect="always"
       id="linearGradient7713">
      <stop
         style="stop-color:#ff0000;stop-opacity:1;"
         offset="0"
         id="stop7709" />
      <stop
         style="stop-color:#6e0000;stop-opacity:0"
         offset="1"
         id="stop7711" />
    </linearGradient>
    <linearGradient
       inkscape:collect="always"
       id="linearGradient6919">
      <stop
         style="stop-color:#ff0000;stop-opacity:1;"
         offset="0"
         id="stop6915" />
      <stop
         style="stop-color:#6e0000;stop-opacity:1"
         offset="1"
         id="stop6917" />
    </linearGradient>
    <linearGradient
       inkscape:collect="always"
       xlink:href="#linearGradient6919"
       id="linearGradient6921"
       x1="54.480797"
       y1="111.91367"
       x2="64.364159"
       y2="122.59587"
       gradientUnits="userSpaceOnUse" />
    <radialGradient
       inkscape:collect="always"
       xlink:href="#linearGradient7713"
       id="radialGradient7688"
       cx="59.75251"
       cy="117.18578"
       fx="59.75251"
       fy="117.18578"
       r="5.4034367"
       gradientTransform="matrix(1.1450573,-0.04998184,0.0553095,1.2671109,-15.149026,-28.315063)"
       gradientUnits="userSpaceOnUse" />
    <clipPath
       clipPathUnits="userSpaceOnUse"
       id="clipPath13002">
      <path
         style="fill:#000080;fill-opacity:1;stroke:none;stroke-width:0.264583px;stroke-linecap:butt;stroke-linejoin:miter;stroke-opacity:1"
         d="m 54.951752,114.3536 c -0.458367,0.91673 -0.571654,1.93694 -0.384001,2.92351 0.626282,3.29263 2.661396,4.98742 5.313564,4.3349 0.58783,-0.14463 1.11148,0.18705 1.77278,0.0217 2.310452,-0.5776 4.03919,-4.2927 3.114021,-6.60561 -0.846918,-2.42199 -3.22802,-2.55529 -5.348287,-2.32696 -1.656731,-0.1226 -3.586454,-0.11081 -4.468077,1.65243 z"
         id="path13004"
         sodipodi:nodetypes="ssssccs" />
    </clipPath>
    <radialGradient
       inkscape:collect="always"
       xlink:href="#linearGradient7913"
       id="radialGradient15489"
       cx="59.795799"
       cy="109.75057"
       fx="59.795799"
       fy="109.75057"
       r="3.11955"
       gradientTransform="matrix(-0.99952715,0.03074845,-0.05983387,-1.9449947,125.52143,322.79279)"
       gradientUnits="userSpaceOnUse" />
  </defs>
  <g
     inkscape:label="Layer 1"
     inkscape:groupmode="layer"
     id="layer1"
     transform="translate(-54.481285,-111.03305)">
    <path
       style="fill:url(#linearGradient6921);fill-opacity:1;stroke:none;stroke-width:0.264583px;stroke-linecap:butt;stroke-linejoin:miter;stroke-opacity:1"
       d="m 54.951751,114.35357 c -0.458367,0.91673 -0.571653,1.93694 -0.384,2.92351 0.626282,3.29263 2.661398,4.98742 5.313564,4.3349 0.587831,-0.14463 1.111482,0.18705 1.772779,0.0217 2.310455,-0.57761 4.039193,-4.2927 3.114022,-6.60562 -0.846917,-2.42199 -3.228019,-2.55529 -5.348288,-2.32696 -1.656731,-0.12259 -3.586454,-0.11081 -4.468077,1.65244 z"
       id="path991"
       sodipodi:nodetypes="ssssccs" />
    <path
       style="fill:url(#radialGradient7688);fill-opacity:1;stroke:none;stroke-width:0.264583px;stroke-linecap:butt;stroke-linejoin:miter;stroke-opacity:1"
       d="m 54.951751,114.35357 c -0.458367,0.91673 -0.571653,1.93694 -0.384,2.92351 0.626282,3.29263 2.661398,4.98742 5.313564,4.3349 0.587831,-0.14463 1.111482,0.18705 1.772779,0.0217 2.310455,-0.57761 4.039193,-4.2927 3.114022,-6.60562 -0.846917,-2.42199 -3.228019,-2.55529 -5.348288,-2.32696 -1.656731,-0.12259 -3.586454,-0.11081 -4.468077,1.65244 z"
       id="path991-9"
       sodipodi:nodetypes="ssssccs" />
    <path
       style="fill:url(#radialGradient15489);fill-opacity:1;stroke:none;stroke-width:0.264583px;stroke-linecap:butt;stroke-linejoin:miter;stroke-opacity:1"
       d="m 58.941189,112.72205 c -0.07777,0.14534 -0.06598,0.44698 -0.186535,0.70304 -0.209303,0.44457 0.233731,0.97004 0.233731,0.97004 0.0012,-0.0459 0.1038,-0.64033 0.260208,-0.91685 0.133018,-0.23516 0.431096,-0.3929 0.55427,-0.59139 0,0 0.132193,0.26472 0.522714,0.56868 0.420382,0.32721 1.586545,0.7989 1.586545,0.7989 0,0 -0.732287,-0.62866 -0.95158,-1.04586 -0.07771,-0.14784 -0.114056,-0.48791 -0.114056,-0.48791 0,0 0.677348,0.2178 1.020646,0.17945 0.353486,-0.0395 0.984258,-0.41212 0.984258,-0.41212 -1.365993,0.46858 -1.553729,-0.9154 -2.593627,-0.76142 0,0 -0.04439,-0.69621 -0.277653,-0.69355 l -0.755788,0.11602 c -0.279421,0.99218 -0.991025,0.86772 -1.616783,1.17848 -0.645284,0.33168 -1.153991,0.20137 -1.374904,0.30609 0.378553,0.0777 0.877501,0.33605 1.299304,0.23557 0.453886,-0.10813 1.022054,-0.25098 1.40925,-0.14717 z"
       id="path1851"
       sodipodi:nodetypes="cscacscacaccccccsc" />
    <path
       style="fill:none;fill-opacity:1;stroke:#ffffff;stroke-width:0.3;stroke-miterlimit:4;stroke-dasharray:0.9,0.3;stroke-dashoffset:0.3;stroke-opacity:1"
       id="path9102"
       sodipodi:type="arc"
       sodipodi:cx="59.749546"
       sodipodi:cy="116.57566"
       sodipodi:rx="5.418221"
       sodipodi:ry="2.3986223"
       sodipodi:start="0"
       sodipodi:end="3.1415927"
       sodipodi:open="true"
       sodipodi:arc-type="arc"
       clip-path="url(#clipPath13002)"
       d="m 65.167767,116.57566 a 5.418221,2.3986223 0 0 1 -2.709111,2.07727 5.418221,2.3986223 0 0 1 -5.418221,0 5.418221,2.3986223 0 0 1 -2.70911,-2.07727" />
    <text
       xml:space="preserve"
       style="font-style:normal;font-weight:normal;font-size:3.12329px;line-height:1.25;font-family:sans-serif;fill:#ffffff;fill-opacity:1;stroke:#ffffff;stroke-width:0;stroke-miterlimit:4;stroke-dasharray:none;stroke-opacity:1"
       x="57.786762"
       y="116.87656"
       id="text12814"><tspan
         sodipodi:role="line"
         id="tspan12812"
         style="fill:#ffffff;stroke:#ffffff;stroke-width:0;stroke-miterlimit:4;stroke-dasharray:none;stroke-opacity:1"
         x="57.786762"
         y="116.87656">25</tspan></text>
  </g>
</svg>
